<?xml version="1.0" encoding="UTF-8"?><!DOCTYPE svg PUBLIC "-//W3C//DTD SVG 1.1//EN" "http://www.w3.org/Graphics/SVG/1.1/DTD/svg11.dtd"><svg xmlns="http://www.w3.org/2000/svg"><defs>
        <style>
            .cls-1{fill:#fff}
        </style>
    
        <style>
            .cls-1{fill:#fff}
        </style>
    </defs><symbol id="icon-android" viewBox="0 0 505.145 505.145">
    <g>
        <path d="M68.541 164.715h-1.294c-16.588 0-30.113 13.568-30.113 30.113v131.107c0 16.61 13.525 30.134 30.113 30.134h1.316c16.588 0 30.113-13.568 30.113-30.134V194.827c-.022-16.544-13.568-30.112-30.135-30.112z"/>
        <path d="M113.085 376.54c0 15.229 12.446 27.632 27.675 27.632h29.574v70.817c0 16.631 13.568 30.156 30.113 30.156h1.294c16.61 0 30.156-13.546 30.156-30.156v-70.817h41.33v70.817c0 16.631 13.611 30.156 30.156 30.156h1.273c16.609 0 30.134-13.546 30.134-30.156v-70.817h29.595c15.207 0 27.654-12.403 27.654-27.632V169.525H113.085V376.54z"/>
        <path d="M322.041 43.983l23.491-36.26c1.51-2.287.841-5.414-1.467-6.903-2.286-1.51-5.414-.884-6.903 1.467l-24.353 37.512c-18.27-7.485-38.676-11.691-60.226-11.691-21.571 0-41.934 4.206-60.247 11.691l-24.31-37.512C166.538-.064 163.388-.69 161.08.82c-2.308 1.488-2.977 4.616-1.467 6.903l23.512 36.26c-42.387 20.773-70.968 59.924-70.968 104.834 0 2.761.173 5.479.41 8.175H392.62c.237-2.696.388-5.414.388-8.175.001-44.91-28.602-84.061-70.967-104.834zm-134.386 64.928c-7.442 0-13.482-5.997-13.482-13.46 0-7.463 6.04-13.439 13.482-13.439 7.485 0 13.482 5.975 13.482 13.439s-6.04 13.46-13.482 13.46zm129.835 0c-7.442 0-13.482-5.997-13.482-13.46 0-7.463 6.04-13.439 13.482-13.439 7.463 0 13.46 5.975 13.46 13.439 0 7.463-5.997 13.46-13.46 13.46z"/>
        <path d="M437.876 164.715h-1.251c-16.588 0-30.156 13.568-30.156 30.113v131.107c0 16.61 13.59 30.134 30.156 30.134h1.273c16.609 0 30.113-13.568 30.113-30.134V194.827c0-16.544-13.547-30.112-30.135-30.112z"/>
    </g>
</symbol><symbol id="icon-apple" viewBox="0 0 305 305">
    <path d="M40.738 112.119c-25.785 44.745-9.393 112.648 19.121 153.82C74.092 286.523 88.502 305 108.239 305c.372 0 .745-.007 1.127-.022 9.273-.37 15.974-3.225 22.453-5.984 7.274-3.1 14.797-6.305 26.597-6.305 11.226 0 18.39 3.101 25.318 6.099 6.828 2.954 13.861 6.01 24.253 5.815 22.232-.414 35.882-20.352 47.925-37.941 12.567-18.365 18.871-36.196 20.998-43.01l.086-.271a2.5 2.5 0 0 0-1.328-3.066c-.032-.015-.15-.064-.183-.078-3.915-1.601-38.257-16.836-38.618-58.36-.335-33.736 25.763-51.601 30.997-54.839l.244-.152a2.498 2.498 0 0 0 .71-3.511c-18.014-26.362-45.624-30.335-56.74-30.813a50.043 50.043 0 0 0-4.95-.242c-13.056 0-25.563 4.931-35.611 8.893-6.936 2.735-12.927 5.097-17.059 5.097-4.643 0-10.668-2.391-17.645-5.159-9.33-3.703-19.905-7.899-31.1-7.899-.267 0-.53.003-.789.008-26.03.383-50.626 15.275-64.186 38.859z"/>
    <path d="M212.101.002c-15.763.642-34.672 10.345-45.974 23.583-9.605 11.127-18.988 29.679-16.516 48.379a2.499 2.499 0 0 0 2.284 2.164c1.064.083 2.15.125 3.232.126 15.413 0 32.04-8.527 43.395-22.257 11.951-14.498 17.994-33.104 16.166-49.77a2.515 2.515 0 0 0-2.587-2.225z"/>
</symbol><symbol id="icon-arrow-down" viewBox="0 0 451.847 451.847">
    <path d="M225.923 354.706c-8.098 0-16.195-3.092-22.369-9.263L9.27 151.157c-12.359-12.359-12.359-32.397 0-44.751 12.354-12.354 32.388-12.354 44.748 0l171.905 171.915 171.906-171.909c12.359-12.354 32.391-12.354 44.744 0 12.365 12.354 12.365 32.392 0 44.751L248.292 345.449c-6.177 6.172-14.274 9.257-22.369 9.257z"/>
</symbol><symbol id="icon-arrow-right-circle" viewBox="0 0 455.992 455.992">
    <path d="M227.996 0C102.081 0 0 102.081 0 227.996c0 125.945 102.081 227.996 227.996 227.996 125.945 0 227.996-102.051 227.996-227.996C455.992 102.081 353.941 0 227.996 0zm71.439 238.788l-98.585 98.585c-5.928 5.897-15.565 5.897-21.492 0-5.928-5.928-5.928-15.595 0-21.492l87.885-87.885-87.885-87.885c-5.928-5.928-5.928-15.565 0-21.492s15.565-5.928 21.492 0l98.585 98.585c3.04 2.979 4.469 6.901 4.438 10.792 0 3.922-1.459 7.813-4.438 10.792z"/>
</symbol><symbol id="icon-arrow-right" viewBox="0 0 451.846 451.847">
    <path d="M345.441 248.292L151.154 442.573c-12.359 12.365-32.397 12.365-44.75 0-12.354-12.354-12.354-32.391 0-44.744L278.318 225.92 106.409 54.017c-12.354-12.359-12.354-32.394 0-44.748 12.354-12.359 32.391-12.359 44.75 0l194.287 194.284c6.177 6.18 9.262 14.271 9.262 22.366 0 8.099-3.091 16.196-9.267 22.373z"/>
</symbol><symbol id="icon-arrow_left-cicle" viewBox="0 0 60.68 60.68">
    
    <title>
        arrow_left_1
    </title>
    <g id="Layer_2" data-name="Layer 2">
        <path class="cls-1" d="M30.34 0a30.34 30.34 0 1 0 30.34 30.34A30.37 30.37 0 0 0 30.34 0zm6.59 31.25l-11.37 11.5a1.28 1.28 0 0 1-1.81 0 1.32 1.32 0 0 1 0-1.83l10.47-10.58-10.46-10.58a1.29 1.29 0 0 1 0-1.82 1.25 1.25 0 0 1 1.8 0l11.37 11.49a1.29 1.29 0 0 1 0 1.82z" id="Layer_1-2" data-name="Layer 1"/>
    </g>
</symbol><symbol id="icon-arrow_right-circle" viewBox="0 0 60.68 60.68">
    
    <title>
        arrow_right_1
    </title>
    <g id="Layer_2" data-name="Layer 2">
        <path class="cls-1" d="M30.34 60.68A30.34 30.34 0 1 0 0 30.34a30.37 30.37 0 0 0 30.34 30.34zm-6.59-31.25l11.37-11.49a1.26 1.26 0 0 1 1.81 0 1.29 1.29 0 0 1 0 1.82L26.46 30.34l10.47 10.58a1.3 1.3 0 0 1 0 1.83 1.28 1.28 0 0 1-1.81 0l-11.37-11.5a1.31 1.31 0 0 1 0-1.82z" id="Layer_1-2" data-name="Layer 1"/>
    </g>
</symbol><symbol id="icon-check" viewBox="0 0 512 512">
    <path d="M437.019 74.98C388.667 26.629 324.38 0 256 0 187.619 0 123.332 26.629 74.98 74.98 26.629 123.332 0 187.62 0 256s26.629 132.667 74.98 181.019C123.332 485.371 187.62 512 256 512s132.667-26.629 181.019-74.98C485.371 388.667 512 324.38 512 256s-26.629-132.667-74.981-181.02zm-58.713 120.093L235.241 338.139a14.953 14.953 0 0 1-10.606 4.393 14.953 14.953 0 0 1-10.607-4.393l-80.334-80.333c-5.858-5.857-5.858-15.354 0-21.213 5.857-5.858 15.355-5.858 21.213 0l69.728 69.727 132.458-132.46c5.857-5.858 15.355-5.858 21.213 0 5.858 5.858 5.858 15.355 0 21.213z"/>
</symbol><symbol id="icon-double-arrows" viewBox="0 0 970.627 970.627">
    <path d="M49.777 943.627c22.3 18.101 49.1 27 75.7 27 34.8 0 69.4-15.1 93.1-44.199l298.7-366.7c36-44.101 36-107.401 0-151.601l-296.4-363.899c-41.9-51.4-117.4-59.1-168.8-17.3-51.4 41.9-59.1 117.5-17.3 168.9l234.7 288.101-237 290.9c-41.8 51.298-34.1 126.899 17.3 168.798z"/>
    <path d="M641.777 44.227c-41.801-51.4-117.4-59.1-168.801-17.3-51.399 41.9-59.1 117.4-17.199 168.8l234.6 288.1-237 290.901c-41.9 51.399-34.1 127 17.2 168.8 22.3 18.1 49.1 27 75.7 27 34.8 0 69.399-15.1 93.1-44.2l298.7-366.7c36-44.1 36-107.4 0-151.6l-296.3-363.801z"/>
</symbol><symbol id="icon-facebook" viewBox="0 0 96.124 96.123">
    <path d="M72.089.02L59.624 0C45.62 0 36.57 9.285 36.57 23.656v10.907H24.037a1.96 1.96 0 0 0-1.96 1.961v15.803a1.96 1.96 0 0 0 1.96 1.96H36.57v39.876a1.96 1.96 0 0 0 1.96 1.96h16.352a1.96 1.96 0 0 0 1.96-1.96V54.287h14.654a1.96 1.96 0 0 0 1.96-1.96l.006-15.803a1.963 1.963 0 0 0-1.961-1.961H56.842v-9.246c0-4.444 1.059-6.7 6.848-6.7l8.397-.003a1.96 1.96 0 0 0 1.959-1.96V1.98A1.96 1.96 0 0 0 72.089.02z"/>
</symbol><symbol id="icon-left-chevron" viewBox="0 0 455 455">
    <path d="M227.5 0C101.855 0 0 101.855 0 227.5S101.855 455 227.5 455 455 353.145 455 227.5 353.145 0 227.5 0zm49.272 334.411l-21.248 21.178L127.852 227.5 255.524 99.411l21.248 21.178L170.209 227.5l106.563 106.911z"/>
</symbol><symbol id="icon-linkedin" viewBox="0 0 430.117 430.117">
    <path d="M430.117 261.543V420.56h-92.188V272.193c0-37.271-13.334-62.707-46.703-62.707-25.473 0-40.632 17.142-47.301 33.724-2.432 5.928-3.058 14.179-3.058 22.477V420.56h-92.219s1.242-251.285 0-277.32h92.21v39.309c-.187.294-.43.611-.606.896h.606v-.896c12.251-18.869 34.13-45.824 83.102-45.824 60.673-.001 106.157 39.636 106.157 124.818zM52.183 9.558C20.635 9.558 0 30.251 0 57.463c0 26.619 20.038 47.94 50.959 47.94h.616c32.159 0 52.159-21.317 52.159-47.94-.606-27.212-20-47.905-51.551-47.905zM5.477 420.56h92.184V143.24H5.477v277.32z"/>
</symbol><symbol id="icon-pinterest" viewBox="0 0 486.392 486.392">
    <path d="M430.149 135.248C416.865 39.125 321.076-9.818 218.873 1.642 138.071 10.701 57.512 76.03 54.168 169.447c-2.037 57.029 14.136 99.801 68.399 111.84 23.499-41.586-7.569-50.676-12.433-80.802C90.222 77.367 252.16-6.718 336.975 79.313c58.732 59.583 20.033 242.77-74.57 223.71-90.621-18.179 44.383-164.005-27.937-192.611-58.793-23.286-90.013 71.135-62.137 118.072-16.355 80.711-51.557 156.709-37.3 257.909 46.207-33.561 61.802-97.734 74.57-164.704 23.225 14.136 35.659 28.758 65.268 31.038 109.195 8.48 170.267-109.014 155.28-217.479z"/>
</symbol><symbol id="icon-right-chevron" viewBox="0 0 455 455">
    <path d="M227.5 0C101.855 0 0 101.855 0 227.5S101.855 455 227.5 455 455 353.145 455 227.5 353.145 0 227.5 0zm-28.024 355.589l-21.248-21.178L284.791 227.5 178.228 120.589l21.248-21.178L327.148 227.5 199.476 355.589z"/>
</symbol><symbol id="icon-star" viewBox="0 0 49.94 49.94">
    <path d="M48.856 22.73a3.56 3.56 0 0 0 .906-3.671 3.56 3.56 0 0 0-2.892-2.438l-12.092-1.757a1.58 1.58 0 0 1-1.19-.865L28.182 3.043a3.56 3.56 0 0 0-3.212-1.996 3.56 3.56 0 0 0-3.211 1.996L16.352 14c-.23.467-.676.79-1.191.865L3.069 16.622A3.56 3.56 0 0 0 .177 19.06a3.56 3.56 0 0 0 .906 3.671l8.749 8.528c.373.364.544.888.456 1.4L8.224 44.701a3.506 3.506 0 0 0 .781 2.904c1.066 1.267 2.927 1.653 4.415.871l10.814-5.686a1.619 1.619 0 0 1 1.472 0l10.815 5.686a3.544 3.544 0 0 0 1.666.417c1.057 0 2.059-.47 2.748-1.288a3.505 3.505 0 0 0 .781-2.904l-2.065-12.042a1.582 1.582 0 0 1 .456-1.4l8.749-8.529z"/>
</symbol><symbol id="icon-twitter" viewBox="0 0 612 612">
    <path d="M612 116.258a250.714 250.714 0 0 1-72.088 19.772c25.929-15.527 45.777-40.155 55.184-69.411-24.322 14.379-51.169 24.82-79.775 30.48-22.907-24.437-55.49-39.658-91.63-39.658-69.334 0-125.551 56.217-125.551 125.513 0 9.828 1.109 19.427 3.251 28.606-104.326-5.24-196.835-55.223-258.75-131.174-10.823 18.51-16.98 40.078-16.98 63.101 0 43.559 22.181 81.993 55.835 104.479a125.556 125.556 0 0 1-56.867-15.756v1.568c0 60.806 43.291 111.554 100.693 123.104-10.517 2.83-21.607 4.398-33.08 4.398-8.107 0-15.947-.803-23.634-2.333 15.985 49.907 62.336 86.199 117.253 87.194-42.947 33.654-97.099 53.655-155.916 53.655-10.134 0-20.116-.612-29.944-1.721 55.567 35.681 121.536 56.485 192.438 56.485 230.948 0 357.188-191.291 357.188-357.188l-.421-16.253c24.666-17.593 46.005-39.697 62.794-64.861z"/>
</symbol></svg>